<?xml version="1.0" standalone="no"?>
<!DOCTYPE svg PUBLIC "-//W3C//DTD SVG 20010904//EN"
 "http://www.w3.org/TR/2001/REC-SVG-20010904/DTD/svg10.dtd">
<svg version="1.0" xmlns="http://www.w3.org/2000/svg"
 width="1400.000000pt" height="1400.000000pt" viewBox="0 0 1400.000000 1400.000000"
 preserveAspectRatio="xMidYMid meet">

<g transform="translate(0.000000,1400.000000) scale(0.100000,-0.100000)"
fill="#000000" stroke="none">
<path d="M7404 11260 c-393 -5 -413 -6 -434 -25 -21 -19 -22 -25 -16 -155 4
-74 6 -274 6 -445 0 -170 4 -746 10 -1280 5 -533 12 -1305 15 -1715 3 -410 8
-904 11 -1098 l6 -353 31 -16 c28 -14 98 -15 694 -11 593 5 665 7 688 22 l25
16 0 308 c0 334 -26 3327 -36 4190 l-6 533 -26 17 c-30 20 -237 22 -968 12z
m796 -293 l0 -194 -152 -6 c-83 -4 -317 -7 -520 -7 l-368 0 0 195 0 195 363 3
c199 1 433 3 520 5 l157 2 0 -193z m4 -511 c3 -111 10 -883 16 -1716 6 -833
12 -1572 14 -1642 l4 -128 -431 0 c-238 0 -472 -2 -520 -5 -64 -3 -89 -1 -92
8 -2 6 -8 640 -14 1407 -6 767 -14 1592 -17 1832 l-7 438 464 3 c255 1 489 3
520 3 l57 1 6 -201z m36 -3909 l0 -264 -122 -6 c-66 -4 -300 -7 -520 -7 l-398
0 0 228 c0 125 -3 244 -6 264 l-7 38 324 2 c178 2 415 4 527 6 l202 2 0 -263z"/>
<path d="M9015 11260 c-310 -4 -405 -8 -424 -19 l-23 -13 6 -742 c42 -4719 36
-4283 59 -4303 18 -17 61 -18 687 -17 705 1 722 2 736 46 3 11 3 210 0 442 -4
231 -11 990 -16 1686 -5 696 -12 1429 -15 1630 -3 201 -6 561 -6 800 -1 239
-5 445 -9 456 -15 40 -62 46 -338 42 -141 -1 -437 -5 -657 -8z m798 -292 c3
-106 4 -195 1 -197 -2 -2 -238 -6 -524 -9 l-520 -5 0 196 0 197 368 3 c202 1
435 3 518 5 l151 2 6 -192z m2 -322 c2 -6 6 -273 8 -593 l6 -583 -524 0 -524
0 -1 552 c0 303 -3 569 -6 590 l-7 38 469 3 c258 1 493 3 522 3 30 0 55 -4 57
-10z m19 -1978 c15 -1424 22 -2383 19 -2388 -2 -2 -237 -6 -522 -8 l-518 -4
-6 763 c-4 420 -10 1102 -14 1516 l-6 752 129 3 c71 2 305 4 520 6 l392 3 6
-643z"/>
<path d="M5750 11218 c-37 -85 -170 -447 -170 -462 0 -9 -7 -27 -15 -39 -14
-22 -101 -248 -490 -1277 -101 -267 -214 -564 -250 -660 -816 -2151 -846
-2230 -835 -2250 15 -28 37 -38 332 -149 145 -55 359 -136 476 -180 118 -45
222 -81 231 -81 9 0 25 6 34 13 10 6 68 147 131 312 63 165 290 766 506 1335
216 569 427 1127 470 1240 87 227 415 1093 576 1519 57 151 104 284 104 296 0
12 -10 31 -22 42 -34 30 -974 383 -1021 383 -35 0 -40 -3 -57 -42z m300 -154
c80 -30 253 -96 385 -146 132 -49 241 -91 242 -92 2 -1 -28 -83 -66 -182 -47
-121 -73 -178 -83 -176 -12 3 -122 44 -633 237 -77 29 -140 55 -140 58 0 21
132 357 140 357 6 0 75 -25 155 -56z m-68 -510 c442 -168 512 -195 515 -198 2
-2 -113 -311 -256 -687 -609 -1607 -1052 -2773 -1054 -2776 -3 -2 -778 286
-786 293 -2 2 33 102 79 221 87 230 324 857 465 1228 46 121 165 436 265 700
101 264 189 496 196 515 10 29 257 678 293 773 6 15 15 27 20 27 6 0 124 -43
263 -96z m-1246 -3670 c214 -80 390 -147 391 -148 2 -1 -26 -76 -61 -167 -34
-90 -75 -196 -90 -235 l-27 -72 -342 130 c-188 71 -366 139 -395 150 -29 11
-52 23 -50 28 2 4 41 110 88 234 47 124 88 226 91 226 3 0 181 -66 395 -146z"/>
<path d="M3882 6043 c-7 -3 -19 -18 -27 -33 -13 -25 -15 -117 -15 -614 0 -407
3 -592 11 -609 6 -14 22 -30 35 -36 26 -11 6179 -16 6222 -5 52 14 52 16 52
659 l0 596 -25 24 -24 25 -3108 -1 c-1709 0 -3114 -3 -3121 -6z m578 -643 l0
-470 -240 0 -240 0 0 470 0 470 240 0 240 0 0 -470z m5560 280 l0 -190 -2710
0 -2710 0 0 190 0 190 2710 0 2710 0 0 -190z m0 -560 l0 -190 -2694 0 c-1482
0 -2701 -3 -2710 -6 -14 -5 -16 15 -16 190 l0 196 2710 0 2710 0 0 -190z"/>
<path d="M3840 3647 l0 -912 3160 -1 3160 0 0 913 0 913 -3160 0 -3160 0 0
-913z m2496 646 c145 -48 255 -188 316 -398 20 -70 23 -101 22 -250 0 -156 -2
-177 -28 -260 -57 -187 -147 -309 -273 -367 -274 -129 -547 141 -579 572 -21
280 108 588 286 680 78 41 176 50 256 23z m1459 3 c151 -46 268 -197 326 -422
34 -131 32 -331 -4 -466 -88 -330 -322 -497 -548 -392 -146 69 -249 227 -295
455 -22 110 -15 310 15 423 79 298 291 466 506 402z m1039 -17 l26 -20 0 -252
0 -252 103 105 c56 58 173 178 259 266 86 89 164 164 173 167 24 10 63 -13 74
-44 12 -35 5 -45 -150 -204 -158 -162 -244 -257 -242 -264 1 -3 96 -157 212
-343 116 -185 214 -350 217 -367 8 -40 -17 -71 -58 -71 -42 0 -20 -31 -297
413 l-174 278 -58 -63 -58 -63 -1 -262 c0 -249 -1 -264 -20 -283 -27 -27 -56
-25 -85 5 l-25 24 0 596 c0 403 3 603 11 616 9 17 39 36 60 38 4 1 18 -8 33
-20z m-3900 -9 c96 -36 176 -142 195 -256 16 -101 -9 -199 -71 -276 -28 -36
-30 -41 -14 -50 106 -59 187 -221 172 -345 -16 -133 -95 -247 -214 -305 l-66
-33 -203 -3 c-193 -3 -202 -3 -222 17 -21 21 -21 27 -21 624 0 529 2 605 16
625 15 21 20 22 194 22 156 0 186 -3 234 -20z"/>
<path d="M6154 4161 c-88 -40 -171 -165 -210 -316 -26 -101 -24 -303 4 -406
28 -103 74 -191 126 -244 59 -58 101 -79 161 -79 131 0 242 129 296 343 18 72
20 104 16 215 -5 143 -21 217 -67 312 -79 162 -206 230 -326 175z"/>
<path d="M7612 4159 c-82 -41 -160 -158 -199 -300 -14 -48 -18 -101 -18 -214
0 -129 3 -160 23 -225 32 -100 65 -163 115 -217 166 -180 371 -75 459 234 29
104 31 303 4 408 -66 257 -230 390 -384 314z"/>
<path d="M4620 3955 l0 -205 117 0 c97 0 124 3 159 20 135 66 144 280 15 367
-31 21 -45 23 -162 23 l-129 0 0 -205z"/>
<path d="M4620 3376 l0 -246 138 0 c123 0 142 3 188 24 62 29 109 84 131 154
32 102 -14 216 -111 277 -48 29 -53 30 -198 33 l-148 4 0 -246z"/>
</g>
</svg>
